<?xml version="1.0" encoding="utf-8" standalone="no"?>
<!DOCTYPE svg PUBLIC "-//W3C//DTD SVG 1.1//EN"
  "http://www.w3.org/Graphics/SVG/1.1/DTD/svg11.dtd">
<svg xmlns:xlink="http://www.w3.org/1999/xlink" width="864pt" height="576pt" viewBox="0 0 864 576" xmlns="http://www.w3.org/2000/svg" version="1.1">
 <metadata>
  <rdf:RDF xmlns:dc="http://purl.org/dc/elements/1.1/" xmlns:cc="http://creativecommons.org/ns#" xmlns:rdf="http://www.w3.org/1999/02/22-rdf-syntax-ns#">
   <cc:Work>
    <dc:type rdf:resource="http://purl.org/dc/dcmitype/StillImage"/>
    <dc:date>2024-04-10T23:34:58.250943</dc:date>
    <dc:format>image/svg+xml</dc:format>
    <dc:creator>
     <cc:Agent>
      <dc:title>Matplotlib v3.8.2, https://matplotlib.org/</dc:title>
     </cc:Agent>
    </dc:creator>
   </cc:Work>
  </rdf:RDF>
 </metadata>
 <defs>
  <style type="text/css">*{stroke-linejoin: round; stroke-linecap: butt}</style>
 </defs>
 <g id="figure_1">
  <g id="patch_1">
   <path d="M 0 576 
L 864 576 
L 864 0 
L 0 0 
z
" style="fill: #ffffff"/>
  </g>
  <g id="axes_1">
   <g id="patch_2">
    <path d="M 166.359623 442.449929 
Q 188.031269 395.797634 210.17394 348.131368 
" style="fill: none; stroke: #000000; stroke-linecap: round"/>
    <path d="M 168.459045 440.778873 
L 166.359623 442.449929 
L 166.282431 439.767758 
" style="fill: none; stroke: #000000; stroke-linecap: round"/>
   </g>
   <g id="text_1">
    <g id="patch_3">
     <path d="M 136.918161 468.622125 
L 182.097224 468.622125 
Q 183.897224 468.622125 183.897224 466.822125 
L 183.897224 447.577875 
Q 183.897224 445.777875 182.097224 445.777875 
L 136.918161 445.777875 
Q 135.118161 445.777875 135.118161 447.577875 
L 135.118161 466.822125 
Q 135.118161 468.622125 136.918161 468.622125 
z
" style="fill: #e89051; stroke: #000000; stroke-linejoin: miter"/>
    </g>
    <!-- gini = 0.191 -->
    <g transform="translate(141.025817 452.136938) scale(0.06 -0.06)">
     <defs>
      <path id="DejaVuSans-67" d="M 2906 1791 
Q 2906 2416 2648 2759 
Q 2391 3103 1925 3103 
Q 1463 3103 1205 2759 
Q 947 2416 947 1791 
Q 947 1169 1205 825 
Q 1463 481 1925 481 
Q 2391 481 2648 825 
Q 2906 1169 2906 1791 
z
M 3481 434 
Q 3481 -459 3084 -895 
Q 2688 -1331 1869 -1331 
Q 1566 -1331 1297 -1286 
Q 1028 -1241 775 -1147 
L 775 -588 
Q 1028 -725 1275 -790 
Q 1522 -856 1778 -856 
Q 2344 -856 2625 -561 
Q 2906 -266 2906 331 
L 2906 616 
Q 2728 306 2450 153 
Q 2172 0 1784 0 
Q 1141 0 747 490 
Q 353 981 353 1791 
Q 353 2603 747 3093 
Q 1141 3584 1784 3584 
Q 2172 3584 2450 3431 
Q 2728 3278 2906 2969 
L 2906 3500 
L 3481 3500 
L 3481 434 
z
" transform="scale(0.015625)"/>
      <path id="DejaVuSans-69" d="M 603 3500 
L 1178 3500 
L 1178 0 
L 603 0 
L 603 3500 
z
M 603 4863 
L 1178 4863 
L 1178 4134 
L 603 4134 
L 603 4863 
z
" transform="scale(0.015625)"/>
      <path id="DejaVuSans-6e" d="M 3513 2113 
L 3513 0 
L 2938 0 
L 2938 2094 
Q 2938 2591 2744 2837 
Q 2550 3084 2163 3084 
Q 1697 3084 1428 2787 
Q 1159 2491 1159 1978 
L 1159 0 
L 581 0 
L 581 3500 
L 1159 3500 
L 1159 2956 
Q 1366 3272 1645 3428 
Q 1925 3584 2291 3584 
Q 2894 3584 3203 3211 
Q 3513 2838 3513 2113 
z
" transform="scale(0.015625)"/>
      <path id="DejaVuSans-20" transform="scale(0.015625)"/>
      <path id="DejaVuSans-3d" d="M 678 2906 
L 4684 2906 
L 4684 2381 
L 678 2381 
L 678 2906 
z
M 678 1631 
L 4684 1631 
L 4684 1100 
L 678 1100 
L 678 1631 
z
" transform="scale(0.015625)"/>
      <path id="DejaVuSans-30" d="M 2034 4250 
Q 1547 4250 1301 3770 
Q 1056 3291 1056 2328 
Q 1056 1369 1301 889 
Q 1547 409 2034 409 
Q 2525 409 2770 889 
Q 3016 1369 3016 2328 
Q 3016 3291 2770 3770 
Q 2525 4250 2034 4250 
z
M 2034 4750 
Q 2819 4750 3233 4129 
Q 3647 3509 3647 2328 
Q 3647 1150 3233 529 
Q 2819 -91 2034 -91 
Q 1250 -91 836 529 
Q 422 1150 422 2328 
Q 422 3509 836 4129 
Q 1250 4750 2034 4750 
z
" transform="scale(0.015625)"/>
      <path id="DejaVuSans-2e" d="M 684 794 
L 1344 794 
L 1344 0 
L 684 0 
L 684 794 
z
" transform="scale(0.015625)"/>
      <path id="DejaVuSans-31" d="M 794 531 
L 1825 531 
L 1825 4091 
L 703 3866 
L 703 4441 
L 1819 4666 
L 2450 4666 
L 2450 531 
L 3481 531 
L 3481 0 
L 794 0 
L 794 531 
z
" transform="scale(0.015625)"/>
      <path id="DejaVuSans-39" d="M 703 97 
L 703 672 
Q 941 559 1184 500 
Q 1428 441 1663 441 
Q 2288 441 2617 861 
Q 2947 1281 2994 2138 
Q 2813 1869 2534 1725 
Q 2256 1581 1919 1581 
Q 1219 1581 811 2004 
Q 403 2428 403 3163 
Q 403 3881 828 4315 
Q 1253 4750 1959 4750 
Q 2769 4750 3195 4129 
Q 3622 3509 3622 2328 
Q 3622 1225 3098 567 
Q 2575 -91 1691 -91 
Q 1453 -91 1209 -44 
Q 966 3 703 97 
z
M 1959 2075 
Q 2384 2075 2632 2365 
Q 2881 2656 2881 3163 
Q 2881 3666 2632 3958 
Q 2384 4250 1959 4250 
Q 1534 4250 1286 3958 
Q 1038 3666 1038 3163 
Q 1038 2656 1286 2365 
Q 1534 2075 1959 2075 
z
" transform="scale(0.015625)"/>
     </defs>
     <use xlink:href="#DejaVuSans-67"/>
     <use xlink:href="#DejaVuSans-69" x="63.476562"/>
     <use xlink:href="#DejaVuSans-6e" x="91.259766"/>
     <use xlink:href="#DejaVuSans-69" x="154.638672"/>
     <use xlink:href="#DejaVuSans-20" x="182.421875"/>
     <use xlink:href="#DejaVuSans-3d" x="214.208984"/>
     <use xlink:href="#DejaVuSans-20" x="297.998047"/>
     <use xlink:href="#DejaVuSans-30" x="329.785156"/>
     <use xlink:href="#DejaVuSans-2e" x="393.408203"/>
     <use xlink:href="#DejaVuSans-31" x="425.195312"/>
     <use xlink:href="#DejaVuSans-39" x="488.818359"/>
     <use xlink:href="#DejaVuSans-31" x="552.441406"/>
    </g>
    <!-- samples = 84 -->
    <g transform="translate(138.799255 458.855625) scale(0.06 -0.06)">
     <defs>
      <path id="DejaVuSans-73" d="M 2834 3397 
L 2834 2853 
Q 2591 2978 2328 3040 
Q 2066 3103 1784 3103 
Q 1356 3103 1142 2972 
Q 928 2841 928 2578 
Q 928 2378 1081 2264 
Q 1234 2150 1697 2047 
L 1894 2003 
Q 2506 1872 2764 1633 
Q 3022 1394 3022 966 
Q 3022 478 2636 193 
Q 2250 -91 1575 -91 
Q 1294 -91 989 -36 
Q 684 19 347 128 
L 347 722 
Q 666 556 975 473 
Q 1284 391 1588 391 
Q 1994 391 2212 530 
Q 2431 669 2431 922 
Q 2431 1156 2273 1281 
Q 2116 1406 1581 1522 
L 1381 1569 
Q 847 1681 609 1914 
Q 372 2147 372 2553 
Q 372 3047 722 3315 
Q 1072 3584 1716 3584 
Q 2034 3584 2315 3537 
Q 2597 3491 2834 3397 
z
" transform="scale(0.015625)"/>
      <path id="DejaVuSans-61" d="M 2194 1759 
Q 1497 1759 1228 1600 
Q 959 1441 959 1056 
Q 959 750 1161 570 
Q 1363 391 1709 391 
Q 2188 391 2477 730 
Q 2766 1069 2766 1631 
L 2766 1759 
L 2194 1759 
z
M 3341 1997 
L 3341 0 
L 2766 0 
L 2766 531 
Q 2569 213 2275 61 
Q 1981 -91 1556 -91 
Q 1019 -91 701 211 
Q 384 513 384 1019 
Q 384 1609 779 1909 
Q 1175 2209 1959 2209 
L 2766 2209 
L 2766 2266 
Q 2766 2663 2505 2880 
Q 2244 3097 1772 3097 
Q 1472 3097 1187 3025 
Q 903 2953 641 2809 
L 641 3341 
Q 956 3463 1253 3523 
Q 1550 3584 1831 3584 
Q 2591 3584 2966 3190 
Q 3341 2797 3341 1997 
z
" transform="scale(0.015625)"/>
      <path id="DejaVuSans-6d" d="M 3328 2828 
Q 3544 3216 3844 3400 
Q 4144 3584 4550 3584 
Q 5097 3584 5394 3201 
Q 5691 2819 5691 2113 
L 5691 0 
L 5113 0 
L 5113 2094 
Q 5113 2597 4934 2840 
Q 4756 3084 4391 3084 
Q 3944 3084 3684 2787 
Q 3425 2491 3425 1978 
L 3425 0 
L 2847 0 
L 2847 2094 
Q 2847 2600 2669 2842 
Q 2491 3084 2119 3084 
Q 1678 3084 1418 2786 
Q 1159 2488 1159 1978 
L 1159 0 
L 581 0 
L 581 3500 
L 1159 3500 
L 1159 2956 
Q 1356 3278 1631 3431 
Q 1906 3584 2284 3584 
Q 2666 3584 2933 3390 
Q 3200 3197 3328 2828 
z
" transform="scale(0.015625)"/>
      <path id="DejaVuSans-70" d="M 1159 525 
L 1159 -1331 
L 581 -1331 
L 581 3500 
L 1159 3500 
L 1159 2969 
Q 1341 3281 1617 3432 
Q 1894 3584 2278 3584 
Q 2916 3584 3314 3078 
Q 3713 2572 3713 1747 
Q 3713 922 3314 415 
Q 2916 -91 2278 -91 
Q 1894 -91 1617 61 
Q 1341 213 1159 525 
z
M 3116 1747 
Q 3116 2381 2855 2742 
Q 2594 3103 2138 3103 
Q 1681 3103 1420 2742 
Q 1159 2381 1159 1747 
Q 1159 1113 1420 752 
Q 1681 391 2138 391 
Q 2594 391 2855 752 
Q 3116 1113 3116 1747 
z
" transform="scale(0.015625)"/>
      <path id="DejaVuSans-6c" d="M 603 4863 
L 1178 4863 
L 1178 0 
L 603 0 
L 603 4863 
z
" transform="scale(0.015625)"/>
      <path id="DejaVuSans-65" d="M 3597 1894 
L 3597 1613 
L 953 1613 
Q 991 1019 1311 708 
Q 1631 397 2203 397 
Q 2534 397 2845 478 
Q 3156 559 3463 722 
L 3463 178 
Q 3153 47 2828 -22 
Q 2503 -91 2169 -91 
Q 1331 -91 842 396 
Q 353 884 353 1716 
Q 353 2575 817 3079 
Q 1281 3584 2069 3584 
Q 2775 3584 3186 3129 
Q 3597 2675 3597 1894 
z
M 3022 2063 
Q 3016 2534 2758 2815 
Q 2500 3097 2075 3097 
Q 1594 3097 1305 2825 
Q 1016 2553 972 2059 
L 3022 2063 
z
" transform="scale(0.015625)"/>
      <path id="DejaVuSans-38" d="M 2034 2216 
Q 1584 2216 1326 1975 
Q 1069 1734 1069 1313 
Q 1069 891 1326 650 
Q 1584 409 2034 409 
Q 2484 409 2743 651 
Q 3003 894 3003 1313 
Q 3003 1734 2745 1975 
Q 2488 2216 2034 2216 
z
M 1403 2484 
Q 997 2584 770 2862 
Q 544 3141 544 3541 
Q 544 4100 942 4425 
Q 1341 4750 2034 4750 
Q 2731 4750 3128 4425 
Q 3525 4100 3525 3541 
Q 3525 3141 3298 2862 
Q 3072 2584 2669 2484 
Q 3125 2378 3379 2068 
Q 3634 1759 3634 1313 
Q 3634 634 3220 271 
Q 2806 -91 2034 -91 
Q 1263 -91 848 271 
Q 434 634 434 1313 
Q 434 1759 690 2068 
Q 947 2378 1403 2484 
z
M 1172 3481 
Q 1172 3119 1398 2916 
Q 1625 2713 2034 2713 
Q 2441 2713 2670 2916 
Q 2900 3119 2900 3481 
Q 2900 3844 2670 4047 
Q 2441 4250 2034 4250 
Q 1625 4250 1398 4047 
Q 1172 3844 1172 3481 
z
" transform="scale(0.015625)"/>
      <path id="DejaVuSans-34" d="M 2419 4116 
L 825 1625 
L 2419 1625 
L 2419 4116 
z
M 2253 4666 
L 3047 4666 
L 3047 1625 
L 3713 1625 
L 3713 1100 
L 3047 1100 
L 3047 0 
L 2419 0 
L 2419 1100 
L 313 1100 
L 313 1709 
L 2253 4666 
z
" transform="scale(0.015625)"/>
     </defs>
     <use xlink:href="#DejaVuSans-73"/>
     <use xlink:href="#DejaVuSans-61" x="52.099609"/>
     <use xlink:href="#DejaVuSans-6d" x="113.378906"/>
     <use xlink:href="#DejaVuSans-70" x="210.791016"/>
     <use xlink:href="#DejaVuSans-6c" x="274.267578"/>
     <use xlink:href="#DejaVuSans-65" x="302.050781"/>
     <use xlink:href="#DejaVuSans-73" x="363.574219"/>
     <use xlink:href="#DejaVuSans-20" x="415.673828"/>
     <use xlink:href="#DejaVuSans-3d" x="447.460938"/>
     <use xlink:href="#DejaVuSans-20" x="531.25"/>
     <use xlink:href="#DejaVuSans-38" x="563.037109"/>
     <use xlink:href="#DejaVuSans-34" x="626.660156"/>
    </g>
    <!-- value = [75, 9] -->
    <g transform="translate(136.918161 465.574313) scale(0.06 -0.06)">
     <defs>
      <path id="DejaVuSans-76" d="M 191 3500 
L 800 3500 
L 1894 563 
L 2988 3500 
L 3597 3500 
L 2284 0 
L 1503 0 
L 191 3500 
z
" transform="scale(0.015625)"/>
      <path id="DejaVuSans-75" d="M 544 1381 
L 544 3500 
L 1119 3500 
L 1119 1403 
Q 1119 906 1312 657 
Q 1506 409 1894 409 
Q 2359 409 2629 706 
Q 2900 1003 2900 1516 
L 2900 3500 
L 3475 3500 
L 3475 0 
L 2900 0 
L 2900 538 
Q 2691 219 2414 64 
Q 2138 -91 1772 -91 
Q 1169 -91 856 284 
Q 544 659 544 1381 
z
M 1991 3584 
L 1991 3584 
z
" transform="scale(0.015625)"/>
      <path id="DejaVuSans-5b" d="M 550 4863 
L 1875 4863 
L 1875 4416 
L 1125 4416 
L 1125 -397 
L 1875 -397 
L 1875 -844 
L 550 -844 
L 550 4863 
z
" transform="scale(0.015625)"/>
      <path id="DejaVuSans-37" d="M 525 4666 
L 3525 4666 
L 3525 4397 
L 1831 0 
L 1172 0 
L 2766 4134 
L 525 4134 
L 525 4666 
z
" transform="scale(0.015625)"/>
      <path id="DejaVuSans-35" d="M 691 4666 
L 3169 4666 
L 3169 4134 
L 1269 4134 
L 1269 2991 
Q 1406 3038 1543 3061 
Q 1681 3084 1819 3084 
Q 2600 3084 3056 2656 
Q 3513 2228 3513 1497 
Q 3513 744 3044 326 
Q 2575 -91 1722 -91 
Q 1428 -91 1123 -41 
Q 819 9 494 109 
L 494 744 
Q 775 591 1075 516 
Q 1375 441 1709 441 
Q 2250 441 2565 725 
Q 2881 1009 2881 1497 
Q 2881 1984 2565 2268 
Q 2250 2553 1709 2553 
Q 1456 2553 1204 2497 
Q 953 2441 691 2322 
L 691 4666 
z
" transform="scale(0.015625)"/>
      <path id="DejaVuSans-2c" d="M 750 794 
L 1409 794 
L 1409 256 
L 897 -744 
L 494 -744 
L 750 256 
L 750 794 
z
" transform="scale(0.015625)"/>
      <path id="DejaVuSans-5d" d="M 1947 4863 
L 1947 -844 
L 622 -844 
L 622 -397 
L 1369 -397 
L 1369 4416 
L 622 4416 
L 622 4863 
L 1947 4863 
z
" transform="scale(0.015625)"/>
     </defs>
     <use xlink:href="#DejaVuSans-76"/>
     <use xlink:href="#DejaVuSans-61" x="59.179688"/>
     <use xlink:href="#DejaVuSans-6c" x="120.458984"/>
     <use xlink:href="#DejaVuSans-75" x="148.242188"/>
     <use xlink:href="#DejaVuSans-65" x="211.621094"/>
     <use xlink:href="#DejaVuSans-20" x="273.144531"/>
     <use xlink:href="#DejaVuSans-3d" x="304.931641"/>
     <use xlink:href="#DejaVuSans-20" x="388.720703"/>
     <use xlink:href="#DejaVuSans-5b" x="420.507812"/>
     <use xlink:href="#DejaVuSans-37" x="459.521484"/>
     <use xlink:href="#DejaVuSans-35" x="523.144531"/>
     <use xlink:href="#DejaVuSans-2c" x="586.767578"/>
     <use xlink:href="#DejaVuSans-20" x="618.554688"/>
     <use xlink:href="#DejaVuSans-39" x="650.341797"/>
     <use xlink:href="#DejaVuSans-5d" x="713.964844"/>
    </g>
   </g>
   <g id="patch_4">
    <path d="M 255.671146 442.449929 
Q 233.9995 395.797634 211.85683 348.131368 
" style="fill: none; stroke: #000000; stroke-linecap: round"/>
    <path d="M 255.748339 439.767758 
L 255.671146 442.449929 
L 253.571725 440.778873 
" style="fill: none; stroke: #000000; stroke-linecap: round"/>
   </g>
   <g id="text_2">
    <g id="patch_5">
     <path d="M 241.842296 468.622125 
L 283.203858 468.622125 
Q 285.003858 468.622125 285.003858 466.822125 
L 285.003858 447.577875 
Q 285.003858 445.777875 283.203858 445.777875 
L 241.842296 445.777875 
Q 240.042296 445.777875 240.042296 447.577875 
L 240.042296 466.822125 
Q 240.042296 468.622125 241.842296 468.622125 
z
" style="fill: #bddef6; stroke: #000000; stroke-linejoin: miter"/>
    </g>
    <!-- gini = 0.48 -->
    <g transform="translate(245.949952 452.136938) scale(0.06 -0.06)">
     <use xlink:href="#DejaVuSans-67"/>
     <use xlink:href="#DejaVuSans-69" x="63.476562"/>
     <use xlink:href="#DejaVuSans-6e" x="91.259766"/>
     <use xlink:href="#DejaVuSans-69" x="154.638672"/>
     <use xlink:href="#DejaVuSans-20" x="182.421875"/>
     <use xlink:href="#DejaVuSans-3d" x="214.208984"/>
     <use xlink:href="#DejaVuSans-20" x="297.998047"/>
     <use xlink:href="#DejaVuSans-30" x="329.785156"/>
     <use xlink:href="#DejaVuSans-2e" x="393.408203"/>
     <use xlink:href="#DejaVuSans-34" x="425.195312"/>
     <use xlink:href="#DejaVuSans-38" x="488.818359"/>
    </g>
    <!-- samples = 5 -->
    <g transform="translate(243.723389 458.855625) scale(0.06 -0.06)">
     <use xlink:href="#DejaVuSans-73"/>
     <use xlink:href="#DejaVuSans-61" x="52.099609"/>
     <use xlink:href="#DejaVuSans-6d" x="113.378906"/>
     <use xlink:href="#DejaVuSans-70" x="210.791016"/>
     <use xlink:href="#DejaVuSans-6c" x="274.267578"/>
     <use xlink:href="#DejaVuSans-65" x="302.050781"/>
     <use xlink:href="#DejaVuSans-73" x="363.574219"/>
     <use xlink:href="#DejaVuSans-20" x="415.673828"/>
     <use xlink:href="#DejaVuSans-3d" x="447.460938"/>
     <use xlink:href="#DejaVuSans-20" x="531.25"/>
     <use xlink:href="#DejaVuSans-35" x="563.037109"/>
    </g>
    <!-- value = [2, 3] -->
    <g transform="translate(241.842296 465.574313) scale(0.06 -0.06)">
     <defs>
      <path id="DejaVuSans-32" d="M 1228 531 
L 3431 531 
L 3431 0 
L 469 0 
L 469 531 
Q 828 903 1448 1529 
Q 2069 2156 2228 2338 
Q 2531 2678 2651 2914 
Q 2772 3150 2772 3378 
Q 2772 3750 2511 3984 
Q 2250 4219 1831 4219 
Q 1534 4219 1204 4116 
Q 875 4013 500 3803 
L 500 4441 
Q 881 4594 1212 4672 
Q 1544 4750 1819 4750 
Q 2544 4750 2975 4387 
Q 3406 4025 3406 3419 
Q 3406 3131 3298 2873 
Q 3191 2616 2906 2266 
Q 2828 2175 2409 1742 
Q 1991 1309 1228 531 
z
" transform="scale(0.015625)"/>
      <path id="DejaVuSans-33" d="M 2597 2516 
Q 3050 2419 3304 2112 
Q 3559 1806 3559 1356 
Q 3559 666 3084 287 
Q 2609 -91 1734 -91 
Q 1441 -91 1130 -33 
Q 819 25 488 141 
L 488 750 
Q 750 597 1062 519 
Q 1375 441 1716 441 
Q 2309 441 2620 675 
Q 2931 909 2931 1356 
Q 2931 1769 2642 2001 
Q 2353 2234 1838 2234 
L 1294 2234 
L 1294 2753 
L 1863 2753 
Q 2328 2753 2575 2939 
Q 2822 3125 2822 3475 
Q 2822 3834 2567 4026 
Q 2313 4219 1838 4219 
Q 1578 4219 1281 4162 
Q 984 4106 628 3988 
L 628 4550 
Q 988 4650 1302 4700 
Q 1616 4750 1894 4750 
Q 2613 4750 3031 4423 
Q 3450 4097 3450 3541 
Q 3450 3153 3228 2886 
Q 3006 2619 2597 2516 
z
" transform="scale(0.015625)"/>
     </defs>
     <use xlink:href="#DejaVuSans-76"/>
     <use xlink:href="#DejaVuSans-61" x="59.179688"/>
     <use xlink:href="#DejaVuSans-6c" x="120.458984"/>
     <use xlink:href="#DejaVuSans-75" x="148.242188"/>
     <use xlink:href="#DejaVuSans-65" x="211.621094"/>
     <use xlink:href="#DejaVuSans-20" x="273.144531"/>
     <use xlink:href="#DejaVuSans-3d" x="304.931641"/>
     <use xlink:href="#DejaVuSans-20" x="388.720703"/>
     <use xlink:href="#DejaVuSans-5b" x="420.507812"/>
     <use xlink:href="#DejaVuSans-32" x="459.521484"/>
     <use xlink:href="#DejaVuSans-2c" x="523.144531"/>
     <use xlink:href="#DejaVuSans-20" x="554.931641"/>
     <use xlink:href="#DejaVuSans-33" x="586.71875"/>
     <use xlink:href="#DejaVuSans-5d" x="650.341797"/>
    </g>
   </g>
   <g id="patch_6">
    <path d="M 372.390393 442.449929 
Q 394.062038 395.797634 416.204709 348.131368 
" style="fill: none; stroke: #000000; stroke-linecap: round"/>
    <path d="M 374.489814 440.778873 
L 372.390393 442.449929 
L 372.3132 439.767758 
" style="fill: none; stroke: #000000; stroke-linecap: round"/>
   </g>
   <g id="text_3">
    <g id="patch_7">
     <path d="M 337.224555 468.622125 
L 393.852368 468.622125 
Q 395.652368 468.622125 395.652368 466.822125 
L 395.652368 447.577875 
Q 395.652368 445.777875 393.852368 445.777875 
L 337.224555 445.777875 
Q 335.424555 445.777875 335.424555 447.577875 
L 335.424555 466.822125 
Q 335.424555 468.622125 337.224555 468.622125 
z
" style="fill: #efb286; stroke: #000000; stroke-linejoin: miter"/>
    </g>
    <!-- gini = 0.403 -->
    <g transform="translate(347.056587 452.136938) scale(0.06 -0.06)">
     <use xlink:href="#DejaVuSans-67"/>
     <use xlink:href="#DejaVuSans-69" x="63.476562"/>
     <use xlink:href="#DejaVuSans-6e" x="91.259766"/>
     <use xlink:href="#DejaVuSans-69" x="154.638672"/>
     <use xlink:href="#DejaVuSans-20" x="182.421875"/>
     <use xlink:href="#DejaVuSans-3d" x="214.208984"/>
     <use xlink:href="#DejaVuSans-20" x="297.998047"/>
     <use xlink:href="#DejaVuSans-30" x="329.785156"/>
     <use xlink:href="#DejaVuSans-2e" x="393.408203"/>
     <use xlink:href="#DejaVuSans-34" x="425.195312"/>
     <use xlink:href="#DejaVuSans-30" x="488.818359"/>
     <use xlink:href="#DejaVuSans-33" x="552.441406"/>
    </g>
    <!-- samples = 25 -->
    <g transform="translate(344.830024 458.855625) scale(0.06 -0.06)">
     <use xlink:href="#DejaVuSans-73"/>
     <use xlink:href="#DejaVuSans-61" x="52.099609"/>
     <use xlink:href="#DejaVuSans-6d" x="113.378906"/>
     <use xlink:href="#DejaVuSans-70" x="210.791016"/>
     <use xlink:href="#DejaVuSans-6c" x="274.267578"/>
     <use xlink:href="#DejaVuSans-65" x="302.050781"/>
     <use xlink:href="#DejaVuSans-73" x="363.574219"/>
     <use xlink:href="#DejaVuSans-20" x="415.673828"/>
     <use xlink:href="#DejaVuSans-3d" x="447.460938"/>
     <use xlink:href="#DejaVuSans-20" x="531.25"/>
     <use xlink:href="#DejaVuSans-32" x="563.037109"/>
     <use xlink:href="#DejaVuSans-35" x="626.660156"/>
    </g>
    <!-- value = [18.0, 7.0] -->
    <g transform="translate(337.224555 465.574313) scale(0.06 -0.06)">
     <use xlink:href="#DejaVuSans-76"/>
     <use xlink:href="#DejaVuSans-61" x="59.179688"/>
     <use xlink:href="#DejaVuSans-6c" x="120.458984"/>
     <use xlink:href="#DejaVuSans-75" x="148.242188"/>
     <use xlink:href="#DejaVuSans-65" x="211.621094"/>
     <use xlink:href="#DejaVuSans-20" x="273.144531"/>
     <use xlink:href="#DejaVuSans-3d" x="304.931641"/>
     <use xlink:href="#DejaVuSans-20" x="388.720703"/>
     <use xlink:href="#DejaVuSans-5b" x="420.507812"/>
     <use xlink:href="#DejaVuSans-31" x="459.521484"/>
     <use xlink:href="#DejaVuSans-38" x="523.144531"/>
     <use xlink:href="#DejaVuSans-2e" x="586.767578"/>
     <use xlink:href="#DejaVuSans-30" x="618.554688"/>
     <use xlink:href="#DejaVuSans-2c" x="682.177734"/>
     <use xlink:href="#DejaVuSans-20" x="713.964844"/>
     <use xlink:href="#DejaVuSans-37" x="745.751953"/>
     <use xlink:href="#DejaVuSans-2e" x="809.375"/>
     <use xlink:href="#DejaVuSans-30" x="841.162109"/>
     <use xlink:href="#DejaVuSans-5d" x="904.785156"/>
    </g>
   </g>
   <g id="patch_8">
    <path d="M 461.701915 442.449929 
Q 440.03027 395.797634 417.887599 348.131368 
" style="fill: none; stroke: #000000; stroke-linecap: round"/>
    <path d="M 461.779108 439.767758 
L 461.701915 442.449929 
L 459.602494 440.778873 
" style="fill: none; stroke: #000000; stroke-linecap: round"/>
   </g>
   <g id="text_4">
    <g id="patch_9">
     <path d="M 445.964315 468.622125 
L 491.143377 468.622125 
Q 492.943377 468.622125 492.943377 466.822125 
L 492.943377 447.577875 
Q 492.943377 445.777875 491.143377 445.777875 
L 445.964315 445.777875 
Q 444.164315 445.777875 444.164315 447.577875 
L 444.164315 466.822125 
Q 444.164315 468.622125 445.964315 468.622125 
z
" style="fill: #61b1ea; stroke: #000000; stroke-linejoin: miter"/>
    </g>
    <!-- gini = 0.278 -->
    <g transform="translate(450.071971 452.136938) scale(0.06 -0.06)">
     <use xlink:href="#DejaVuSans-67"/>
     <use xlink:href="#DejaVuSans-69" x="63.476562"/>
     <use xlink:href="#DejaVuSans-6e" x="91.259766"/>
     <use xlink:href="#DejaVuSans-69" x="154.638672"/>
     <use xlink:href="#DejaVuSans-20" x="182.421875"/>
     <use xlink:href="#DejaVuSans-3d" x="214.208984"/>
     <use xlink:href="#DejaVuSans-20" x="297.998047"/>
     <use xlink:href="#DejaVuSans-30" x="329.785156"/>
     <use xlink:href="#DejaVuSans-2e" x="393.408203"/>
     <use xlink:href="#DejaVuSans-32" x="425.195312"/>
     <use xlink:href="#DejaVuSans-37" x="488.818359"/>
     <use xlink:href="#DejaVuSans-38" x="552.441406"/>
    </g>
    <!-- samples = 12 -->
    <g transform="translate(447.845409 458.855625) scale(0.06 -0.06)">
     <use xlink:href="#DejaVuSans-73"/>
     <use xlink:href="#DejaVuSans-61" x="52.099609"/>
     <use xlink:href="#DejaVuSans-6d" x="113.378906"/>
     <use xlink:href="#DejaVuSans-70" x="210.791016"/>
     <use xlink:href="#DejaVuSans-6c" x="274.267578"/>
     <use xlink:href="#DejaVuSans-65" x="302.050781"/>
     <use xlink:href="#DejaVuSans-73" x="363.574219"/>
     <use xlink:href="#DejaVuSans-20" x="415.673828"/>
     <use xlink:href="#DejaVuSans-3d" x="447.460938"/>
     <use xlink:href="#DejaVuSans-20" x="531.25"/>
     <use xlink:href="#DejaVuSans-31" x="563.037109"/>
     <use xlink:href="#DejaVuSans-32" x="626.660156"/>
    </g>
    <!-- value = [2, 10] -->
    <g transform="translate(445.964315 465.574313) scale(0.06 -0.06)">
     <use xlink:href="#DejaVuSans-76"/>
     <use xlink:href="#DejaVuSans-61" x="59.179688"/>
     <use xlink:href="#DejaVuSans-6c" x="120.458984"/>
     <use xlink:href="#DejaVuSans-75" x="148.242188"/>
     <use xlink:href="#DejaVuSans-65" x="211.621094"/>
     <use xlink:href="#DejaVuSans-20" x="273.144531"/>
     <use xlink:href="#DejaVuSans-3d" x="304.931641"/>
     <use xlink:href="#DejaVuSans-20" x="388.720703"/>
     <use xlink:href="#DejaVuSans-5b" x="420.507812"/>
     <use xlink:href="#DejaVuSans-32" x="459.521484"/>
     <use xlink:href="#DejaVuSans-2c" x="523.144531"/>
     <use xlink:href="#DejaVuSans-20" x="554.931641"/>
     <use xlink:href="#DejaVuSans-31" x="586.71875"/>
     <use xlink:href="#DejaVuSans-30" x="650.341797"/>
     <use xlink:href="#DejaVuSans-5d" x="713.964844"/>
    </g>
   </g>
   <g id="patch_10">
    <path d="M 578.421162 442.449929 
Q 600.092807 395.797634 622.235478 348.131368 
" style="fill: none; stroke: #000000; stroke-linecap: round"/>
    <path d="M 580.520583 440.778873 
L 578.421162 442.449929 
L 578.343969 439.767758 
" style="fill: none; stroke: #000000; stroke-linecap: round"/>
   </g>
   <g id="text_5">
    <g id="patch_11">
     <path d="M 548.9797 468.622125 
L 594.158762 468.622125 
Q 595.958762 468.622125 595.958762 466.822125 
L 595.958762 447.577875 
Q 595.958762 445.777875 594.158762 445.777875 
L 548.9797 445.777875 
Q 547.1797 445.777875 547.1797 447.577875 
L 547.1797 466.822125 
Q 547.1797 468.622125 548.9797 468.622125 
z
" style="fill: #eeab7b; stroke: #000000; stroke-linejoin: miter"/>
    </g>
    <!-- gini = 0.375 -->
    <g transform="translate(553.087356 452.136938) scale(0.06 -0.06)">
     <use xlink:href="#DejaVuSans-67"/>
     <use xlink:href="#DejaVuSans-69" x="63.476562"/>
     <use xlink:href="#DejaVuSans-6e" x="91.259766"/>
     <use xlink:href="#DejaVuSans-69" x="154.638672"/>
     <use xlink:href="#DejaVuSans-20" x="182.421875"/>
     <use xlink:href="#DejaVuSans-3d" x="214.208984"/>
     <use xlink:href="#DejaVuSans-20" x="297.998047"/>
     <use xlink:href="#DejaVuSans-30" x="329.785156"/>
     <use xlink:href="#DejaVuSans-2e" x="393.408203"/>
     <use xlink:href="#DejaVuSans-33" x="425.195312"/>
     <use xlink:href="#DejaVuSans-37" x="488.818359"/>
     <use xlink:href="#DejaVuSans-35" x="552.441406"/>
    </g>
    <!-- samples = 28 -->
    <g transform="translate(550.860793 458.855625) scale(0.06 -0.06)">
     <use xlink:href="#DejaVuSans-73"/>
     <use xlink:href="#DejaVuSans-61" x="52.099609"/>
     <use xlink:href="#DejaVuSans-6d" x="113.378906"/>
     <use xlink:href="#DejaVuSans-70" x="210.791016"/>
     <use xlink:href="#DejaVuSans-6c" x="274.267578"/>
     <use xlink:href="#DejaVuSans-65" x="302.050781"/>
     <use xlink:href="#DejaVuSans-73" x="363.574219"/>
     <use xlink:href="#DejaVuSans-20" x="415.673828"/>
     <use xlink:href="#DejaVuSans-3d" x="447.460938"/>
     <use xlink:href="#DejaVuSans-20" x="531.25"/>
     <use xlink:href="#DejaVuSans-32" x="563.037109"/>
     <use xlink:href="#DejaVuSans-38" x="626.660156"/>
    </g>
    <!-- value = [21, 7] -->
    <g transform="translate(548.9797 465.574313) scale(0.06 -0.06)">
     <use xlink:href="#DejaVuSans-76"/>
     <use xlink:href="#DejaVuSans-61" x="59.179688"/>
     <use xlink:href="#DejaVuSans-6c" x="120.458984"/>
     <use xlink:href="#DejaVuSans-75" x="148.242188"/>
     <use xlink:href="#DejaVuSans-65" x="211.621094"/>
     <use xlink:href="#DejaVuSans-20" x="273.144531"/>
     <use xlink:href="#DejaVuSans-3d" x="304.931641"/>
     <use xlink:href="#DejaVuSans-20" x="388.720703"/>
     <use xlink:href="#DejaVuSans-5b" x="420.507812"/>
     <use xlink:href="#DejaVuSans-32" x="459.521484"/>
     <use xlink:href="#DejaVuSans-31" x="523.144531"/>
     <use xlink:href="#DejaVuSans-2c" x="586.767578"/>
     <use xlink:href="#DejaVuSans-20" x="618.554688"/>
     <use xlink:href="#DejaVuSans-37" x="650.341797"/>
     <use xlink:href="#DejaVuSans-5d" x="713.964844"/>
    </g>
   </g>
   <g id="patch_12">
    <path d="M 667.732684 442.449929 
Q 646.061039 395.797634 623.918368 348.131368 
" style="fill: none; stroke: #000000; stroke-linecap: round"/>
    <path d="M 667.809877 439.767758 
L 667.732684 442.449929 
L 665.633263 440.778873 
" style="fill: none; stroke: #000000; stroke-linecap: round"/>
   </g>
   <g id="text_6">
    <g id="patch_13">
     <path d="M 651.995084 468.622125 
L 697.174147 468.622125 
Q 698.974147 468.622125 698.974147 466.822125 
L 698.974147 447.577875 
Q 698.974147 445.777875 697.174147 445.777875 
L 651.995084 445.777875 
Q 650.195084 445.777875 650.195084 447.577875 
L 650.195084 466.822125 
Q 650.195084 468.622125 651.995084 468.622125 
z
" style="fill: #73baed; stroke: #000000; stroke-linejoin: miter"/>
    </g>
    <!-- gini = 0.351 -->
    <g transform="translate(656.10274 452.136938) scale(0.06 -0.06)">
     <use xlink:href="#DejaVuSans-67"/>
     <use xlink:href="#DejaVuSans-69" x="63.476562"/>
     <use xlink:href="#DejaVuSans-6e" x="91.259766"/>
     <use xlink:href="#DejaVuSans-69" x="154.638672"/>
     <use xlink:href="#DejaVuSans-20" x="182.421875"/>
     <use xlink:href="#DejaVuSans-3d" x="214.208984"/>
     <use xlink:href="#DejaVuSans-20" x="297.998047"/>
     <use xlink:href="#DejaVuSans-30" x="329.785156"/>
     <use xlink:href="#DejaVuSans-2e" x="393.408203"/>
     <use xlink:href="#DejaVuSans-33" x="425.195312"/>
     <use xlink:href="#DejaVuSans-35" x="488.818359"/>
     <use xlink:href="#DejaVuSans-31" x="552.441406"/>
    </g>
    <!-- samples = 22 -->
    <g transform="translate(653.876178 458.855625) scale(0.06 -0.06)">
     <use xlink:href="#DejaVuSans-73"/>
     <use xlink:href="#DejaVuSans-61" x="52.099609"/>
     <use xlink:href="#DejaVuSans-6d" x="113.378906"/>
     <use xlink:href="#DejaVuSans-70" x="210.791016"/>
     <use xlink:href="#DejaVuSans-6c" x="274.267578"/>
     <use xlink:href="#DejaVuSans-65" x="302.050781"/>
     <use xlink:href="#DejaVuSans-73" x="363.574219"/>
     <use xlink:href="#DejaVuSans-20" x="415.673828"/>
     <use xlink:href="#DejaVuSans-3d" x="447.460938"/>
     <use xlink:href="#DejaVuSans-20" x="531.25"/>
     <use xlink:href="#DejaVuSans-32" x="563.037109"/>
     <use xlink:href="#DejaVuSans-32" x="626.660156"/>
    </g>
    <!-- value = [5, 17] -->
    <g transform="translate(651.995084 465.574313) scale(0.06 -0.06)">
     <use xlink:href="#DejaVuSans-76"/>
     <use xlink:href="#DejaVuSans-61" x="59.179688"/>
     <use xlink:href="#DejaVuSans-6c" x="120.458984"/>
     <use xlink:href="#DejaVuSans-75" x="148.242188"/>
     <use xlink:href="#DejaVuSans-65" x="211.621094"/>
     <use xlink:href="#DejaVuSans-20" x="273.144531"/>
     <use xlink:href="#DejaVuSans-3d" x="304.931641"/>
     <use xlink:href="#DejaVuSans-20" x="388.720703"/>
     <use xlink:href="#DejaVuSans-5b" x="420.507812"/>
     <use xlink:href="#DejaVuSans-35" x="459.521484"/>
     <use xlink:href="#DejaVuSans-2c" x="523.144531"/>
     <use xlink:href="#DejaVuSans-20" x="554.931641"/>
     <use xlink:href="#DejaVuSans-31" x="586.71875"/>
     <use xlink:href="#DejaVuSans-37" x="650.341797"/>
     <use xlink:href="#DejaVuSans-5d" x="713.964844"/>
    </g>
   </g>
   <g id="patch_14">
    <path d="M 227.340166 328.748918 
Q 269.623093 283.23794 312.667007 236.907877 
" style="fill: none; stroke: #000000; stroke-linecap: round"/>
    <path d="M 229.852853 327.807429 
L 227.340166 328.748918 
L 228.094587 326.173875 
" style="fill: none; stroke: #000000; stroke-linecap: round"/>
   </g>
   <g id="text_7">
    <g id="patch_15">
     <path d="M 186.517103 361.101469 
L 235.513666 361.101469 
Q 237.313666 361.101469 237.313666 359.301469 
L 237.313666 333.338531 
Q 237.313666 331.538531 235.513666 331.538531 
L 186.517103 331.538531 
Q 184.717103 331.538531 184.717103 333.338531 
L 184.717103 359.301469 
Q 184.717103 361.101469 186.517103 361.101469 
z
" style="fill: #e99558; stroke: #000000; stroke-linejoin: miter"/>
    </g>
    <!-- oldpeak &lt;= 2.8 -->
    <g transform="translate(187.410072 337.897594) scale(0.06 -0.06)">
     <defs>
      <path id="DejaVuSans-6f" d="M 1959 3097 
Q 1497 3097 1228 2736 
Q 959 2375 959 1747 
Q 959 1119 1226 758 
Q 1494 397 1959 397 
Q 2419 397 2687 759 
Q 2956 1122 2956 1747 
Q 2956 2369 2687 2733 
Q 2419 3097 1959 3097 
z
M 1959 3584 
Q 2709 3584 3137 3096 
Q 3566 2609 3566 1747 
Q 3566 888 3137 398 
Q 2709 -91 1959 -91 
Q 1206 -91 779 398 
Q 353 888 353 1747 
Q 353 2609 779 3096 
Q 1206 3584 1959 3584 
z
" transform="scale(0.015625)"/>
      <path id="DejaVuSans-64" d="M 2906 2969 
L 2906 4863 
L 3481 4863 
L 3481 0 
L 2906 0 
L 2906 525 
Q 2725 213 2448 61 
Q 2172 -91 1784 -91 
Q 1150 -91 751 415 
Q 353 922 353 1747 
Q 353 2572 751 3078 
Q 1150 3584 1784 3584 
Q 2172 3584 2448 3432 
Q 2725 3281 2906 2969 
z
M 947 1747 
Q 947 1113 1208 752 
Q 1469 391 1925 391 
Q 2381 391 2643 752 
Q 2906 1113 2906 1747 
Q 2906 2381 2643 2742 
Q 2381 3103 1925 3103 
Q 1469 3103 1208 2742 
Q 947 2381 947 1747 
z
" transform="scale(0.015625)"/>
      <path id="DejaVuSans-6b" d="M 581 4863 
L 1159 4863 
L 1159 1991 
L 2875 3500 
L 3609 3500 
L 1753 1863 
L 3688 0 
L 2938 0 
L 1159 1709 
L 1159 0 
L 581 0 
L 581 4863 
z
" transform="scale(0.015625)"/>
      <path id="DejaVuSans-3c" d="M 4684 3150 
L 1459 2003 
L 4684 863 
L 4684 294 
L 678 1747 
L 678 2266 
L 4684 3719 
L 4684 3150 
z
" transform="scale(0.015625)"/>
     </defs>
     <use xlink:href="#DejaVuSans-6f"/>
     <use xlink:href="#DejaVuSans-6c" x="61.181641"/>
     <use xlink:href="#DejaVuSans-64" x="88.964844"/>
     <use xlink:href="#DejaVuSans-70" x="152.441406"/>
     <use xlink:href="#DejaVuSans-65" x="215.917969"/>
     <use xlink:href="#DejaVuSans-61" x="277.441406"/>
     <use xlink:href="#DejaVuSans-6b" x="338.720703"/>
     <use xlink:href="#DejaVuSans-20" x="396.630859"/>
     <use xlink:href="#DejaVuSans-3c" x="428.417969"/>
     <use xlink:href="#DejaVuSans-3d" x="512.207031"/>
     <use xlink:href="#DejaVuSans-20" x="595.996094"/>
     <use xlink:href="#DejaVuSans-32" x="627.783203"/>
     <use xlink:href="#DejaVuSans-2e" x="691.40625"/>
     <use xlink:href="#DejaVuSans-38" x="723.193359"/>
    </g>
    <!-- gini = 0.233 -->
    <g transform="translate(192.53351 344.616281) scale(0.06 -0.06)">
     <use xlink:href="#DejaVuSans-67"/>
     <use xlink:href="#DejaVuSans-69" x="63.476562"/>
     <use xlink:href="#DejaVuSans-6e" x="91.259766"/>
     <use xlink:href="#DejaVuSans-69" x="154.638672"/>
     <use xlink:href="#DejaVuSans-20" x="182.421875"/>
     <use xlink:href="#DejaVuSans-3d" x="214.208984"/>
     <use xlink:href="#DejaVuSans-20" x="297.998047"/>
     <use xlink:href="#DejaVuSans-30" x="329.785156"/>
     <use xlink:href="#DejaVuSans-2e" x="393.408203"/>
     <use xlink:href="#DejaVuSans-32" x="425.195312"/>
     <use xlink:href="#DejaVuSans-33" x="488.818359"/>
     <use xlink:href="#DejaVuSans-33" x="552.441406"/>
    </g>
    <!-- samples = 89 -->
    <g transform="translate(190.306947 351.334969) scale(0.06 -0.06)">
     <use xlink:href="#DejaVuSans-73"/>
     <use xlink:href="#DejaVuSans-61" x="52.099609"/>
     <use xlink:href="#DejaVuSans-6d" x="113.378906"/>
     <use xlink:href="#DejaVuSans-70" x="210.791016"/>
     <use xlink:href="#DejaVuSans-6c" x="274.267578"/>
     <use xlink:href="#DejaVuSans-65" x="302.050781"/>
     <use xlink:href="#DejaVuSans-73" x="363.574219"/>
     <use xlink:href="#DejaVuSans-20" x="415.673828"/>
     <use xlink:href="#DejaVuSans-3d" x="447.460938"/>
     <use xlink:href="#DejaVuSans-20" x="531.25"/>
     <use xlink:href="#DejaVuSans-38" x="563.037109"/>
     <use xlink:href="#DejaVuSans-39" x="626.660156"/>
    </g>
    <!-- value = [77, 12] -->
    <g transform="translate(186.517103 358.053656) scale(0.06 -0.06)">
     <use xlink:href="#DejaVuSans-76"/>
     <use xlink:href="#DejaVuSans-61" x="59.179688"/>
     <use xlink:href="#DejaVuSans-6c" x="120.458984"/>
     <use xlink:href="#DejaVuSans-75" x="148.242188"/>
     <use xlink:href="#DejaVuSans-65" x="211.621094"/>
     <use xlink:href="#DejaVuSans-20" x="273.144531"/>
     <use xlink:href="#DejaVuSans-3d" x="304.931641"/>
     <use xlink:href="#DejaVuSans-20" x="388.720703"/>
     <use xlink:href="#DejaVuSans-5b" x="420.507812"/>
     <use xlink:href="#DejaVuSans-37" x="459.521484"/>
     <use xlink:href="#DejaVuSans-37" x="523.144531"/>
     <use xlink:href="#DejaVuSans-2c" x="586.767578"/>
     <use xlink:href="#DejaVuSans-20" x="618.554688"/>
     <use xlink:href="#DejaVuSans-31" x="650.341797"/>
     <use xlink:href="#DejaVuSans-32" x="713.964844"/>
     <use xlink:href="#DejaVuSans-5d" x="777.587891"/>
    </g>
   </g>
   <g id="patch_16">
    <path d="M 400.721373 328.748918 
Q 358.438446 283.23794 315.394532 236.907877 
" style="fill: none; stroke: #000000; stroke-linecap: round"/>
    <path d="M 399.966952 326.173875 
L 400.721373 328.748918 
L 398.208685 327.807429 
" style="fill: none; stroke: #000000; stroke-linecap: round"/>
   </g>
   <g id="text_8">
    <g id="patch_17">
     <path d="M 392.547873 361.101469 
L 441.544435 361.101469 
Q 443.344435 361.101469 443.344435 359.301469 
L 443.344435 333.338531 
Q 443.344435 331.538531 441.544435 331.538531 
L 392.547873 331.538531 
Q 390.747873 331.538531 390.747873 333.338531 
L 390.747873 359.301469 
Q 390.747873 361.101469 392.547873 361.101469 
z
" style="fill: #fbece1; stroke: #000000; stroke-linejoin: miter"/>
    </g>
    <!-- thal &lt;= 4.5 -->
    <g transform="translate(399.59131 337.897594) scale(0.06 -0.06)">
     <defs>
      <path id="DejaVuSans-74" d="M 1172 4494 
L 1172 3500 
L 2356 3500 
L 2356 3053 
L 1172 3053 
L 1172 1153 
Q 1172 725 1289 603 
Q 1406 481 1766 481 
L 2356 481 
L 2356 0 
L 1766 0 
Q 1100 0 847 248 
Q 594 497 594 1153 
L 594 3053 
L 172 3053 
L 172 3500 
L 594 3500 
L 594 4494 
L 1172 4494 
z
" transform="scale(0.015625)"/>
      <path id="DejaVuSans-68" d="M 3513 2113 
L 3513 0 
L 2938 0 
L 2938 2094 
Q 2938 2591 2744 2837 
Q 2550 3084 2163 3084 
Q 1697 3084 1428 2787 
Q 1159 2491 1159 1978 
L 1159 0 
L 581 0 
L 581 4863 
L 1159 4863 
L 1159 2956 
Q 1366 3272 1645 3428 
Q 1925 3584 2291 3584 
Q 2894 3584 3203 3211 
Q 3513 2838 3513 2113 
z
" transform="scale(0.015625)"/>
     </defs>
     <use xlink:href="#DejaVuSans-74"/>
     <use xlink:href="#DejaVuSans-68" x="39.208984"/>
     <use xlink:href="#DejaVuSans-61" x="102.587891"/>
     <use xlink:href="#DejaVuSans-6c" x="163.867188"/>
     <use xlink:href="#DejaVuSans-20" x="191.650391"/>
     <use xlink:href="#DejaVuSans-3c" x="223.4375"/>
     <use xlink:href="#DejaVuSans-3d" x="307.226562"/>
     <use xlink:href="#DejaVuSans-20" x="391.015625"/>
     <use xlink:href="#DejaVuSans-34" x="422.802734"/>
     <use xlink:href="#DejaVuSans-2e" x="486.425781"/>
     <use xlink:href="#DejaVuSans-35" x="518.212891"/>
    </g>
    <!-- gini = 0.497 -->
    <g transform="translate(398.564279 344.616281) scale(0.06 -0.06)">
     <use xlink:href="#DejaVuSans-67"/>
     <use xlink:href="#DejaVuSans-69" x="63.476562"/>
     <use xlink:href="#DejaVuSans-6e" x="91.259766"/>
     <use xlink:href="#DejaVuSans-69" x="154.638672"/>
     <use xlink:href="#DejaVuSans-20" x="182.421875"/>
     <use xlink:href="#DejaVuSans-3d" x="214.208984"/>
     <use xlink:href="#DejaVuSans-20" x="297.998047"/>
     <use xlink:href="#DejaVuSans-30" x="329.785156"/>
     <use xlink:href="#DejaVuSans-2e" x="393.408203"/>
     <use xlink:href="#DejaVuSans-34" x="425.195312"/>
     <use xlink:href="#DejaVuSans-39" x="488.818359"/>
     <use xlink:href="#DejaVuSans-37" x="552.441406"/>
    </g>
    <!-- samples = 37 -->
    <g transform="translate(396.337716 351.334969) scale(0.06 -0.06)">
     <use xlink:href="#DejaVuSans-73"/>
     <use xlink:href="#DejaVuSans-61" x="52.099609"/>
     <use xlink:href="#DejaVuSans-6d" x="113.378906"/>
     <use xlink:href="#DejaVuSans-70" x="210.791016"/>
     <use xlink:href="#DejaVuSans-6c" x="274.267578"/>
     <use xlink:href="#DejaVuSans-65" x="302.050781"/>
     <use xlink:href="#DejaVuSans-73" x="363.574219"/>
     <use xlink:href="#DejaVuSans-20" x="415.673828"/>
     <use xlink:href="#DejaVuSans-3d" x="447.460938"/>
     <use xlink:href="#DejaVuSans-20" x="531.25"/>
     <use xlink:href="#DejaVuSans-33" x="563.037109"/>
     <use xlink:href="#DejaVuSans-37" x="626.660156"/>
    </g>
    <!-- value = [20, 17] -->
    <g transform="translate(392.547873 358.053656) scale(0.06 -0.06)">
     <use xlink:href="#DejaVuSans-76"/>
     <use xlink:href="#DejaVuSans-61" x="59.179688"/>
     <use xlink:href="#DejaVuSans-6c" x="120.458984"/>
     <use xlink:href="#DejaVuSans-75" x="148.242188"/>
     <use xlink:href="#DejaVuSans-65" x="211.621094"/>
     <use xlink:href="#DejaVuSans-20" x="273.144531"/>
     <use xlink:href="#DejaVuSans-3d" x="304.931641"/>
     <use xlink:href="#DejaVuSans-20" x="388.720703"/>
     <use xlink:href="#DejaVuSans-5b" x="420.507812"/>
     <use xlink:href="#DejaVuSans-32" x="459.521484"/>
     <use xlink:href="#DejaVuSans-30" x="523.144531"/>
     <use xlink:href="#DejaVuSans-2c" x="586.767578"/>
     <use xlink:href="#DejaVuSans-20" x="618.554688"/>
     <use xlink:href="#DejaVuSans-31" x="650.341797"/>
     <use xlink:href="#DejaVuSans-37" x="713.964844"/>
     <use xlink:href="#DejaVuSans-5d" x="777.587891"/>
    </g>
   </g>
   <g id="patch_18">
    <path d="M 631.48976 328.209786 
Q 652.38088 283.237718 673.743026 237.25168 
" style="fill: none; stroke: #000000; stroke-linecap: round"/>
    <path d="M 633.589181 326.538729 
L 631.48976 328.209786 
L 631.412567 325.527615 
" style="fill: none; stroke: #000000; stroke-linecap: round"/>
   </g>
   <g id="text_9">
    <g id="patch_19">
     <path d="M 598.578642 361.101469 
L 647.575204 361.101469 
Q 649.375204 361.101469 649.375204 359.301469 
L 649.375204 333.338531 
Q 649.375204 331.538531 647.575204 331.538531 
L 598.578642 331.538531 
Q 596.778642 331.538531 596.778642 333.338531 
L 596.778642 359.301469 
Q 596.778642 361.101469 598.578642 361.101469 
z
" style="fill: #fdf5f0; stroke: #000000; stroke-linejoin: miter"/>
    </g>
    <!-- exang &lt;= 0.5 -->
    <g transform="translate(602.158017 337.897594) scale(0.06 -0.06)">
     <defs>
      <path id="DejaVuSans-78" d="M 3513 3500 
L 2247 1797 
L 3578 0 
L 2900 0 
L 1881 1375 
L 863 0 
L 184 0 
L 1544 1831 
L 300 3500 
L 978 3500 
L 1906 2253 
L 2834 3500 
L 3513 3500 
z
" transform="scale(0.015625)"/>
     </defs>
     <use xlink:href="#DejaVuSans-65"/>
     <use xlink:href="#DejaVuSans-78" x="59.773438"/>
     <use xlink:href="#DejaVuSans-61" x="118.953125"/>
     <use xlink:href="#DejaVuSans-6e" x="180.232422"/>
     <use xlink:href="#DejaVuSans-67" x="243.611328"/>
     <use xlink:href="#DejaVuSans-20" x="307.087891"/>
     <use xlink:href="#DejaVuSans-3c" x="338.875"/>
     <use xlink:href="#DejaVuSans-3d" x="422.664062"/>
     <use xlink:href="#DejaVuSans-20" x="506.453125"/>
     <use xlink:href="#DejaVuSans-30" x="538.240234"/>
     <use xlink:href="#DejaVuSans-2e" x="601.863281"/>
     <use xlink:href="#DejaVuSans-35" x="633.650391"/>
    </g>
    <!-- gini = 0.499 -->
    <g transform="translate(604.595048 344.616281) scale(0.06 -0.06)">
     <use xlink:href="#DejaVuSans-67"/>
     <use xlink:href="#DejaVuSans-69" x="63.476562"/>
     <use xlink:href="#DejaVuSans-6e" x="91.259766"/>
     <use xlink:href="#DejaVuSans-69" x="154.638672"/>
     <use xlink:href="#DejaVuSans-20" x="182.421875"/>
     <use xlink:href="#DejaVuSans-3d" x="214.208984"/>
     <use xlink:href="#DejaVuSans-20" x="297.998047"/>
     <use xlink:href="#DejaVuSans-30" x="329.785156"/>
     <use xlink:href="#DejaVuSans-2e" x="393.408203"/>
     <use xlink:href="#DejaVuSans-34" x="425.195312"/>
     <use xlink:href="#DejaVuSans-39" x="488.818359"/>
     <use xlink:href="#DejaVuSans-39" x="552.441406"/>
    </g>
    <!-- samples = 50 -->
    <g transform="translate(602.368486 351.334969) scale(0.06 -0.06)">
     <use xlink:href="#DejaVuSans-73"/>
     <use xlink:href="#DejaVuSans-61" x="52.099609"/>
     <use xlink:href="#DejaVuSans-6d" x="113.378906"/>
     <use xlink:href="#DejaVuSans-70" x="210.791016"/>
     <use xlink:href="#DejaVuSans-6c" x="274.267578"/>
     <use xlink:href="#DejaVuSans-65" x="302.050781"/>
     <use xlink:href="#DejaVuSans-73" x="363.574219"/>
     <use xlink:href="#DejaVuSans-20" x="415.673828"/>
     <use xlink:href="#DejaVuSans-3d" x="447.460938"/>
     <use xlink:href="#DejaVuSans-20" x="531.25"/>
     <use xlink:href="#DejaVuSans-35" x="563.037109"/>
     <use xlink:href="#DejaVuSans-30" x="626.660156"/>
    </g>
    <!-- value = [26, 24] -->
    <g transform="translate(598.578642 358.053656) scale(0.06 -0.06)">
     <defs>
      <path id="DejaVuSans-36" d="M 2113 2584 
Q 1688 2584 1439 2293 
Q 1191 2003 1191 1497 
Q 1191 994 1439 701 
Q 1688 409 2113 409 
Q 2538 409 2786 701 
Q 3034 994 3034 1497 
Q 3034 2003 2786 2293 
Q 2538 2584 2113 2584 
z
M 3366 4563 
L 3366 3988 
Q 3128 4100 2886 4159 
Q 2644 4219 2406 4219 
Q 1781 4219 1451 3797 
Q 1122 3375 1075 2522 
Q 1259 2794 1537 2939 
Q 1816 3084 2150 3084 
Q 2853 3084 3261 2657 
Q 3669 2231 3669 1497 
Q 3669 778 3244 343 
Q 2819 -91 2113 -91 
Q 1303 -91 875 529 
Q 447 1150 447 2328 
Q 447 3434 972 4092 
Q 1497 4750 2381 4750 
Q 2619 4750 2861 4703 
Q 3103 4656 3366 4563 
z
" transform="scale(0.015625)"/>
     </defs>
     <use xlink:href="#DejaVuSans-76"/>
     <use xlink:href="#DejaVuSans-61" x="59.179688"/>
     <use xlink:href="#DejaVuSans-6c" x="120.458984"/>
     <use xlink:href="#DejaVuSans-75" x="148.242188"/>
     <use xlink:href="#DejaVuSans-65" x="211.621094"/>
     <use xlink:href="#DejaVuSans-20" x="273.144531"/>
     <use xlink:href="#DejaVuSans-3d" x="304.931641"/>
     <use xlink:href="#DejaVuSans-20" x="388.720703"/>
     <use xlink:href="#DejaVuSans-5b" x="420.507812"/>
     <use xlink:href="#DejaVuSans-32" x="459.521484"/>
     <use xlink:href="#DejaVuSans-36" x="523.144531"/>
     <use xlink:href="#DejaVuSans-2c" x="586.767578"/>
     <use xlink:href="#DejaVuSans-20" x="618.554688"/>
     <use xlink:href="#DejaVuSans-32" x="650.341797"/>
     <use xlink:href="#DejaVuSans-34" x="713.964844"/>
     <use xlink:href="#DejaVuSans-5d" x="777.587891"/>
    </g>
   </g>
   <g id="patch_20">
    <path d="M 719.240377 331.569929 
Q 697.568731 284.917634 675.42606 237.251368 
" style="fill: none; stroke: #000000; stroke-linecap: round"/>
    <path d="M 719.317569 328.887758 
L 719.240377 331.569929 
L 717.140955 329.898873 
" style="fill: none; stroke: #000000; stroke-linecap: round"/>
   </g>
   <g id="text_10">
    <g id="patch_21">
     <path d="M 703.502776 357.742125 
L 748.681839 357.742125 
Q 750.481839 357.742125 750.481839 355.942125 
L 750.481839 336.697875 
Q 750.481839 334.897875 748.681839 334.897875 
L 703.502776 334.897875 
Q 701.702776 334.897875 701.702776 336.697875 
L 701.702776 355.942125 
Q 701.702776 357.742125 703.502776 357.742125 
z
" style="fill: #44a2e6; stroke: #000000; stroke-linejoin: miter"/>
    </g>
    <!-- gini = 0.1 -->
    <g transform="translate(711.427933 341.256938) scale(0.06 -0.06)">
     <use xlink:href="#DejaVuSans-67"/>
     <use xlink:href="#DejaVuSans-69" x="63.476562"/>
     <use xlink:href="#DejaVuSans-6e" x="91.259766"/>
     <use xlink:href="#DejaVuSans-69" x="154.638672"/>
     <use xlink:href="#DejaVuSans-20" x="182.421875"/>
     <use xlink:href="#DejaVuSans-3d" x="214.208984"/>
     <use xlink:href="#DejaVuSans-20" x="297.998047"/>
     <use xlink:href="#DejaVuSans-30" x="329.785156"/>
     <use xlink:href="#DejaVuSans-2e" x="393.408203"/>
     <use xlink:href="#DejaVuSans-31" x="425.195312"/>
    </g>
    <!-- samples = 57 -->
    <g transform="translate(705.38387 347.975625) scale(0.06 -0.06)">
     <use xlink:href="#DejaVuSans-73"/>
     <use xlink:href="#DejaVuSans-61" x="52.099609"/>
     <use xlink:href="#DejaVuSans-6d" x="113.378906"/>
     <use xlink:href="#DejaVuSans-70" x="210.791016"/>
     <use xlink:href="#DejaVuSans-6c" x="274.267578"/>
     <use xlink:href="#DejaVuSans-65" x="302.050781"/>
     <use xlink:href="#DejaVuSans-73" x="363.574219"/>
     <use xlink:href="#DejaVuSans-20" x="415.673828"/>
     <use xlink:href="#DejaVuSans-3d" x="447.460938"/>
     <use xlink:href="#DejaVuSans-20" x="531.25"/>
     <use xlink:href="#DejaVuSans-35" x="563.037109"/>
     <use xlink:href="#DejaVuSans-37" x="626.660156"/>
    </g>
    <!-- value = [3, 54] -->
    <g transform="translate(703.502776 354.694313) scale(0.06 -0.06)">
     <use xlink:href="#DejaVuSans-76"/>
     <use xlink:href="#DejaVuSans-61" x="59.179688"/>
     <use xlink:href="#DejaVuSans-6c" x="120.458984"/>
     <use xlink:href="#DejaVuSans-75" x="148.242188"/>
     <use xlink:href="#DejaVuSans-65" x="211.621094"/>
     <use xlink:href="#DejaVuSans-20" x="273.144531"/>
     <use xlink:href="#DejaVuSans-3d" x="304.931641"/>
     <use xlink:href="#DejaVuSans-20" x="388.720703"/>
     <use xlink:href="#DejaVuSans-5b" x="420.507812"/>
     <use xlink:href="#DejaVuSans-33" x="459.521484"/>
     <use xlink:href="#DejaVuSans-2c" x="523.144531"/>
     <use xlink:href="#DejaVuSans-20" x="554.931641"/>
     <use xlink:href="#DejaVuSans-35" x="586.71875"/>
     <use xlink:href="#DejaVuSans-34" x="650.341797"/>
     <use xlink:href="#DejaVuSans-5d" x="713.964844"/>
    </g>
   </g>
   <g id="patch_22">
    <path d="M 341.476504 218.559397 
Q 416.565312 172.375743 492.606443 125.60636 
" style="fill: none; stroke: #000000; stroke-linecap: round"/>
    <path d="M 344.149458 218.324195 
L 341.476504 218.559397 
L 342.892115 216.279913 
" style="fill: none; stroke: #000000; stroke-linecap: round"/>
   </g>
   <g id="text_11">
    <g id="patch_23">
     <path d="M 289.532488 250.221469 
L 338.52905 250.221469 
Q 340.32905 250.221469 340.32905 248.421469 
L 340.32905 222.458531 
Q 340.32905 220.658531 338.52905 220.658531 
L 289.532488 220.658531 
Q 287.732488 220.658531 287.732488 222.458531 
L 287.732488 248.421469 
Q 287.732488 250.221469 289.532488 250.221469 
z
" style="fill: #eda774; stroke: #000000; stroke-linejoin: miter"/>
    </g>
    <!-- ca &lt;= 0.5 -->
    <g transform="translate(298.837175 227.017594) scale(0.06 -0.06)">
     <defs>
      <path id="DejaVuSans-63" d="M 3122 3366 
L 3122 2828 
Q 2878 2963 2633 3030 
Q 2388 3097 2138 3097 
Q 1578 3097 1268 2742 
Q 959 2388 959 1747 
Q 959 1106 1268 751 
Q 1578 397 2138 397 
Q 2388 397 2633 464 
Q 2878 531 3122 666 
L 3122 134 
Q 2881 22 2623 -34 
Q 2366 -91 2075 -91 
Q 1284 -91 818 406 
Q 353 903 353 1747 
Q 353 2603 823 3093 
Q 1294 3584 2113 3584 
Q 2378 3584 2631 3529 
Q 2884 3475 3122 3366 
z
" transform="scale(0.015625)"/>
     </defs>
     <use xlink:href="#DejaVuSans-63"/>
     <use xlink:href="#DejaVuSans-61" x="54.980469"/>
     <use xlink:href="#DejaVuSans-20" x="116.259766"/>
     <use xlink:href="#DejaVuSans-3c" x="148.046875"/>
     <use xlink:href="#DejaVuSans-3d" x="231.835938"/>
     <use xlink:href="#DejaVuSans-20" x="315.625"/>
     <use xlink:href="#DejaVuSans-30" x="347.412109"/>
     <use xlink:href="#DejaVuSans-2e" x="411.035156"/>
     <use xlink:href="#DejaVuSans-35" x="442.822266"/>
    </g>
    <!-- gini = 0.354 -->
    <g transform="translate(295.548894 233.736281) scale(0.06 -0.06)">
     <use xlink:href="#DejaVuSans-67"/>
     <use xlink:href="#DejaVuSans-69" x="63.476562"/>
     <use xlink:href="#DejaVuSans-6e" x="91.259766"/>
     <use xlink:href="#DejaVuSans-69" x="154.638672"/>
     <use xlink:href="#DejaVuSans-20" x="182.421875"/>
     <use xlink:href="#DejaVuSans-3d" x="214.208984"/>
     <use xlink:href="#DejaVuSans-20" x="297.998047"/>
     <use xlink:href="#DejaVuSans-30" x="329.785156"/>
     <use xlink:href="#DejaVuSans-2e" x="393.408203"/>
     <use xlink:href="#DejaVuSans-33" x="425.195312"/>
     <use xlink:href="#DejaVuSans-35" x="488.818359"/>
     <use xlink:href="#DejaVuSans-34" x="552.441406"/>
    </g>
    <!-- samples = 126 -->
    <g transform="translate(291.413582 240.454969) scale(0.06 -0.06)">
     <use xlink:href="#DejaVuSans-73"/>
     <use xlink:href="#DejaVuSans-61" x="52.099609"/>
     <use xlink:href="#DejaVuSans-6d" x="113.378906"/>
     <use xlink:href="#DejaVuSans-70" x="210.791016"/>
     <use xlink:href="#DejaVuSans-6c" x="274.267578"/>
     <use xlink:href="#DejaVuSans-65" x="302.050781"/>
     <use xlink:href="#DejaVuSans-73" x="363.574219"/>
     <use xlink:href="#DejaVuSans-20" x="415.673828"/>
     <use xlink:href="#DejaVuSans-3d" x="447.460938"/>
     <use xlink:href="#DejaVuSans-20" x="531.25"/>
     <use xlink:href="#DejaVuSans-31" x="563.037109"/>
     <use xlink:href="#DejaVuSans-32" x="626.660156"/>
     <use xlink:href="#DejaVuSans-36" x="690.283203"/>
    </g>
    <!-- value = [97, 29] -->
    <g transform="translate(289.532488 247.173656) scale(0.06 -0.06)">
     <use xlink:href="#DejaVuSans-76"/>
     <use xlink:href="#DejaVuSans-61" x="59.179688"/>
     <use xlink:href="#DejaVuSans-6c" x="120.458984"/>
     <use xlink:href="#DejaVuSans-75" x="148.242188"/>
     <use xlink:href="#DejaVuSans-65" x="211.621094"/>
     <use xlink:href="#DejaVuSans-20" x="273.144531"/>
     <use xlink:href="#DejaVuSans-3d" x="304.931641"/>
     <use xlink:href="#DejaVuSans-20" x="388.720703"/>
     <use xlink:href="#DejaVuSans-5b" x="420.507812"/>
     <use xlink:href="#DejaVuSans-39" x="459.521484"/>
     <use xlink:href="#DejaVuSans-37" x="523.144531"/>
     <use xlink:href="#DejaVuSans-2c" x="586.767578"/>
     <use xlink:href="#DejaVuSans-20" x="618.554688"/>
     <use xlink:href="#DejaVuSans-32" x="650.341797"/>
     <use xlink:href="#DejaVuSans-39" x="713.964844"/>
     <use xlink:href="#DejaVuSans-5d" x="777.587891"/>
    </g>
   </g>
   <g id="patch_24">
    <path d="M 647.079026 218.522584 
Q 572.02216 172.358576 496.01297 125.608838 
" style="fill: none; stroke: #000000; stroke-linecap: round"/>
    <path d="M 645.663416 216.2431 
L 647.079026 218.522584 
L 644.406073 218.287382 
" style="fill: none; stroke: #000000; stroke-linecap: round"/>
   </g>
   <g id="text_12">
    <g id="patch_25">
     <path d="M 644.361959 250.221469 
L 704.807272 250.221469 
Q 706.607272 250.221469 706.607272 248.421469 
L 706.607272 222.458531 
Q 706.607272 220.658531 704.807272 220.658531 
L 644.361959 220.658531 
Q 642.561959 220.658531 642.561959 222.458531 
L 642.561959 248.421469 
Q 642.561959 250.221469 644.361959 250.221469 
z
" style="fill: #83c1ef; stroke: #000000; stroke-linejoin: miter"/>
    </g>
    <!-- ca &lt;= 0.5 -->
    <g transform="translate(659.391022 227.017594) scale(0.06 -0.06)">
     <use xlink:href="#DejaVuSans-63"/>
     <use xlink:href="#DejaVuSans-61" x="54.980469"/>
     <use xlink:href="#DejaVuSans-20" x="116.259766"/>
     <use xlink:href="#DejaVuSans-3c" x="148.046875"/>
     <use xlink:href="#DejaVuSans-3d" x="231.835938"/>
     <use xlink:href="#DejaVuSans-20" x="315.625"/>
     <use xlink:href="#DejaVuSans-30" x="347.412109"/>
     <use xlink:href="#DejaVuSans-2e" x="411.035156"/>
     <use xlink:href="#DejaVuSans-35" x="442.822266"/>
    </g>
    <!-- gini = 0.395 -->
    <g transform="translate(656.10274 233.736281) scale(0.06 -0.06)">
     <use xlink:href="#DejaVuSans-67"/>
     <use xlink:href="#DejaVuSans-69" x="63.476562"/>
     <use xlink:href="#DejaVuSans-6e" x="91.259766"/>
     <use xlink:href="#DejaVuSans-69" x="154.638672"/>
     <use xlink:href="#DejaVuSans-20" x="182.421875"/>
     <use xlink:href="#DejaVuSans-3d" x="214.208984"/>
     <use xlink:href="#DejaVuSans-20" x="297.998047"/>
     <use xlink:href="#DejaVuSans-30" x="329.785156"/>
     <use xlink:href="#DejaVuSans-2e" x="393.408203"/>
     <use xlink:href="#DejaVuSans-33" x="425.195312"/>
     <use xlink:href="#DejaVuSans-39" x="488.818359"/>
     <use xlink:href="#DejaVuSans-35" x="552.441406"/>
    </g>
    <!-- samples = 107 -->
    <g transform="translate(651.967428 240.454969) scale(0.06 -0.06)">
     <use xlink:href="#DejaVuSans-73"/>
     <use xlink:href="#DejaVuSans-61" x="52.099609"/>
     <use xlink:href="#DejaVuSans-6d" x="113.378906"/>
     <use xlink:href="#DejaVuSans-70" x="210.791016"/>
     <use xlink:href="#DejaVuSans-6c" x="274.267578"/>
     <use xlink:href="#DejaVuSans-65" x="302.050781"/>
     <use xlink:href="#DejaVuSans-73" x="363.574219"/>
     <use xlink:href="#DejaVuSans-20" x="415.673828"/>
     <use xlink:href="#DejaVuSans-3d" x="447.460938"/>
     <use xlink:href="#DejaVuSans-20" x="531.25"/>
     <use xlink:href="#DejaVuSans-31" x="563.037109"/>
     <use xlink:href="#DejaVuSans-30" x="626.660156"/>
     <use xlink:href="#DejaVuSans-37" x="690.283203"/>
    </g>
    <!-- value = [29.0, 78.0] -->
    <g transform="translate(644.361959 247.173656) scale(0.06 -0.06)">
     <use xlink:href="#DejaVuSans-76"/>
     <use xlink:href="#DejaVuSans-61" x="59.179688"/>
     <use xlink:href="#DejaVuSans-6c" x="120.458984"/>
     <use xlink:href="#DejaVuSans-75" x="148.242188"/>
     <use xlink:href="#DejaVuSans-65" x="211.621094"/>
     <use xlink:href="#DejaVuSans-20" x="273.144531"/>
     <use xlink:href="#DejaVuSans-3d" x="304.931641"/>
     <use xlink:href="#DejaVuSans-20" x="388.720703"/>
     <use xlink:href="#DejaVuSans-5b" x="420.507812"/>
     <use xlink:href="#DejaVuSans-32" x="459.521484"/>
     <use xlink:href="#DejaVuSans-39" x="523.144531"/>
     <use xlink:href="#DejaVuSans-2e" x="586.767578"/>
     <use xlink:href="#DejaVuSans-30" x="618.554688"/>
     <use xlink:href="#DejaVuSans-2c" x="682.177734"/>
     <use xlink:href="#DejaVuSans-20" x="713.964844"/>
     <use xlink:href="#DejaVuSans-37" x="745.751953"/>
     <use xlink:href="#DejaVuSans-38" x="809.375"/>
     <use xlink:href="#DejaVuSans-2e" x="872.998047"/>
     <use xlink:href="#DejaVuSans-30" x="904.785156"/>
     <use xlink:href="#DejaVuSans-5d" x="968.408203"/>
    </g>
   </g>
   <g id="patch_26">
    <path d="M 494.307692 124.56 
Q 494.307692 124.56 494.307692 124.56 
" style="fill: none; stroke: #000000; stroke-linecap: round"/>
   </g>
   <g id="text_13">
    <g id="patch_27">
     <path d="M 460.267536 139.341469 
L 528.347849 139.341469 
Q 530.147849 139.341469 530.147849 137.541469 
L 530.147849 111.578531 
Q 530.147849 109.778531 528.347849 109.778531 
L 460.267536 109.778531 
Q 458.467536 109.778531 458.467536 111.578531 
L 458.467536 137.541469 
Q 458.467536 139.341469 460.267536 139.341469 
z
" style="fill: #fbece1; stroke: #000000; stroke-linejoin: miter"/>
    </g>
    <!-- cp &lt;= 3.5 -->
    <g transform="translate(479.048005 116.137594) scale(0.06 -0.06)">
     <use xlink:href="#DejaVuSans-63"/>
     <use xlink:href="#DejaVuSans-70" x="54.980469"/>
     <use xlink:href="#DejaVuSans-20" x="118.457031"/>
     <use xlink:href="#DejaVuSans-3c" x="150.244141"/>
     <use xlink:href="#DejaVuSans-3d" x="234.033203"/>
     <use xlink:href="#DejaVuSans-20" x="317.822266"/>
     <use xlink:href="#DejaVuSans-33" x="349.609375"/>
     <use xlink:href="#DejaVuSans-2e" x="413.232422"/>
     <use xlink:href="#DejaVuSans-35" x="445.019531"/>
    </g>
    <!-- gini = 0.497 -->
    <g transform="translate(475.825817 122.856281) scale(0.06 -0.06)">
     <use xlink:href="#DejaVuSans-67"/>
     <use xlink:href="#DejaVuSans-69" x="63.476562"/>
     <use xlink:href="#DejaVuSans-6e" x="91.259766"/>
     <use xlink:href="#DejaVuSans-69" x="154.638672"/>
     <use xlink:href="#DejaVuSans-20" x="182.421875"/>
     <use xlink:href="#DejaVuSans-3d" x="214.208984"/>
     <use xlink:href="#DejaVuSans-20" x="297.998047"/>
     <use xlink:href="#DejaVuSans-30" x="329.785156"/>
     <use xlink:href="#DejaVuSans-2e" x="393.408203"/>
     <use xlink:href="#DejaVuSans-34" x="425.195312"/>
     <use xlink:href="#DejaVuSans-39" x="488.818359"/>
     <use xlink:href="#DejaVuSans-37" x="552.441406"/>
    </g>
    <!-- samples = 233 -->
    <g transform="translate(471.690505 129.574969) scale(0.06 -0.06)">
     <use xlink:href="#DejaVuSans-73"/>
     <use xlink:href="#DejaVuSans-61" x="52.099609"/>
     <use xlink:href="#DejaVuSans-6d" x="113.378906"/>
     <use xlink:href="#DejaVuSans-70" x="210.791016"/>
     <use xlink:href="#DejaVuSans-6c" x="274.267578"/>
     <use xlink:href="#DejaVuSans-65" x="302.050781"/>
     <use xlink:href="#DejaVuSans-73" x="363.574219"/>
     <use xlink:href="#DejaVuSans-20" x="415.673828"/>
     <use xlink:href="#DejaVuSans-3d" x="447.460938"/>
     <use xlink:href="#DejaVuSans-20" x="531.25"/>
     <use xlink:href="#DejaVuSans-32" x="563.037109"/>
     <use xlink:href="#DejaVuSans-33" x="626.660156"/>
     <use xlink:href="#DejaVuSans-33" x="690.283203"/>
    </g>
    <!-- value = [126.0, 107.0] -->
    <g transform="translate(460.267536 136.293656) scale(0.06 -0.06)">
     <use xlink:href="#DejaVuSans-76"/>
     <use xlink:href="#DejaVuSans-61" x="59.179688"/>
     <use xlink:href="#DejaVuSans-6c" x="120.458984"/>
     <use xlink:href="#DejaVuSans-75" x="148.242188"/>
     <use xlink:href="#DejaVuSans-65" x="211.621094"/>
     <use xlink:href="#DejaVuSans-20" x="273.144531"/>
     <use xlink:href="#DejaVuSans-3d" x="304.931641"/>
     <use xlink:href="#DejaVuSans-20" x="388.720703"/>
     <use xlink:href="#DejaVuSans-5b" x="420.507812"/>
     <use xlink:href="#DejaVuSans-31" x="459.521484"/>
     <use xlink:href="#DejaVuSans-32" x="523.144531"/>
     <use xlink:href="#DejaVuSans-36" x="586.767578"/>
     <use xlink:href="#DejaVuSans-2e" x="650.390625"/>
     <use xlink:href="#DejaVuSans-30" x="682.177734"/>
     <use xlink:href="#DejaVuSans-2c" x="745.800781"/>
     <use xlink:href="#DejaVuSans-20" x="777.587891"/>
     <use xlink:href="#DejaVuSans-31" x="809.375"/>
     <use xlink:href="#DejaVuSans-30" x="872.998047"/>
     <use xlink:href="#DejaVuSans-37" x="936.621094"/>
     <use xlink:href="#DejaVuSans-2e" x="1000.244141"/>
     <use xlink:href="#DejaVuSans-30" x="1032.03125"/>
     <use xlink:href="#DejaVuSans-5d" x="1095.654297"/>
    </g>
   </g>
  </g>
 </g>
</svg>
